<?xml version="1.0" standalone="no"?>
<!DOCTYPE svg PUBLIC "-//W3C//DTD SVG 20010904//EN"
 "http://www.w3.org/TR/2001/REC-SVG-20010904/DTD/svg10.dtd">
<svg version="1.0" xmlns="http://www.w3.org/2000/svg"
 width="1640.000000pt" height="924.000000pt" viewBox="0 0 1640.000000 924.000000"
 preserveAspectRatio="xMidYMid meet">

<g transform="translate(0.000000,924.000000) scale(0.100000,-0.100000)"
fill="#000000" stroke="none">
<path d="M8905 6820 c-172 -43 -310 -200 -381 -437 -23 -76 -27 -107 -28 -224
l-1 -137 -65 -6 c-36 -3 -77 -6 -92 -6 l-28 0 0 208 c0 114 -4 213 -8 220 -7
9 -46 12 -163 10 l-154 -3 -3 -202 -2 -202 -33 6 c-44 8 -163 48 -212 70 l-40
18 80 5 c44 3 86 9 93 13 28 18 -25 133 -92 199 -92 90 -236 132 -374 110 -38
-7 -77 -14 -85 -18 -16 -6 -116 137 -177 254 -41 78 -75 100 -131 83 -106 -32
-89 -128 65 -355 l64 -94 -34 -48 c-50 -70 -75 -146 -81 -245 -16 -258 134
-443 387 -479 181 -26 356 51 427 187 17 32 33 71 37 86 6 26 10 28 39 22 71
-14 66 -4 69 -148 l3 -132 147 -3 c184 -3 178 -8 178 132 l0 104 31 6 c17 3
69 6 115 6 l83 0 17 -57 c23 -81 111 -304 178 -453 l57 -125 -28 -20 c-15 -11
-45 -37 -67 -57 -21 -21 -41 -38 -45 -37 -3 0 -19 21 -36 47 -34 53 -80 87
-139 103 -90 25 -215 -13 -299 -90 -24 -23 -47 -41 -51 -41 -3 0 -6 20 -6 44
0 79 6 76 -159 76 -101 0 -151 -4 -159 -12 -7 -7 -12 -31 -12 -54 0 -46 5 -43
-92 -60 l-38 -6 0 54 c0 30 -5 59 -12 66 -8 8 -58 12 -160 12 -135 0 -148 -2
-158 -19 -5 -11 -10 -74 -10 -140 l0 -121 -102 -99 -103 -99 -5 236 -5 237
-152 3 c-145 2 -153 2 -163 -18 -8 -15 -10 -122 -8 -353 3 -312 4 -335 24
-377 19 -42 52 -80 96 -112 17 -12 17 -18 2 -98 -35 -181 -3 -441 74 -612 226
-498 836 -720 1438 -523 196 64 353 164 498 315 164 172 268 381 312 628 17
101 20 341 4 422 -6 30 -15 168 -19 305 -9 258 -12 281 -57 346 -26 38 -108
89 -143 89 -16 0 -28 17 -57 78 -117 251 -232 550 -216 563 4 3 30 14 57 24
77 28 177 80 228 119 26 20 49 36 52 36 3 0 5 -24 5 -53 0 -68 23 -157 55
-212 32 -53 119 -136 171 -163 163 -83 404 -73 536 23 51 38 128 128 128 151
0 15 -43 37 -138 70 l-50 18 -36 -32 c-58 -51 -95 -66 -162 -67 -49 0 -68 5
-101 27 -43 28 -67 77 -61 120 l3 23 280 5 280 5 3 58 c6 112 -39 234 -119
321 -132 145 -386 176 -569 69 -3 -2 -5 45 -5 105 0 90 -4 115 -23 157 -51
110 -139 165 -262 164 -41 -1 -88 -4 -105 -9z m147 -202 c47 -24 65 -159 33
-249 -34 -96 -129 -184 -280 -260 l-100 -51 -9 33 c-14 47 7 210 38 299 29 84
84 170 129 202 58 41 138 52 189 26z m579 -379 c30 -32 48 -94 32 -110 -5 -5
-60 -8 -124 -7 l-114 3 4 30 c8 72 54 115 124 115 42 0 53 -5 78 -31z m-2097
10 c23 -11 44 -39 28 -39 -9 0 -69 49 -60 50 4 0 18 -5 32 -11z m35 -269 c47
-24 119 -56 160 -72 42 -16 65 -27 51 -24 -105 21 -102 22 -137 -37 -37 -61
-78 -87 -140 -87 -53 0 -101 32 -123 83 -22 51 -35 160 -26 222 l7 45 62 -44
c34 -24 100 -63 146 -86z m741 -1010 c11 -11 20 -32 20 -46 0 -26 0 -26 -52
17 -29 24 -55 44 -57 46 -2 2 12 3 32 3 24 0 44 -7 57 -20z m529 10 c10 -5 22
-17 27 -27 5 -10 11 -153 14 -318 l5 -300 84 -3 84 -3 -7 -97 c-24 -335 -163
-601 -411 -785 -142 -106 -288 -164 -485 -193 -518 -76 -973 206 -1051 650
-15 88 -7 303 15 371 14 45 20 52 61 69 25 10 67 38 94 62 27 24 51 44 54 44
4 0 7 -26 9 -57 l3 -58 155 0 155 0 5 269 5 270 30 7 c17 4 47 9 68 12 l37 6
0 -273 c0 -198 3 -275 12 -284 17 -17 289 -17 306 0 9 9 12 76 12 242 l0 230
49 -48 c91 -89 141 -216 141 -354 0 -83 15 -122 55 -140 45 -21 75 -14 112 23
33 33 39 35 98 35 39 0 67 5 73 13 7 8 12 113 14 296 l3 283 39 34 c41 36 96
45 135 24z m-1548 -393 c-43 -44 -50 -26 -10 25 27 34 35 38 37 24 2 -11 -9
-32 -27 -49z"/>
<path d="M4240 6804 c-204 -44 -358 -194 -416 -404 -25 -89 -25 -299 -1 -390
59 -225 209 -385 408 -436 86 -23 246 -22 325 1 146 42 273 144 338 272 35 70
46 126 27 138 -16 10 -236 52 -249 47 -7 -2 -22 -23 -33 -45 -37 -74 -70 -109
-126 -134 -45 -21 -66 -25 -121 -21 -145 8 -192 96 -192 358 0 189 24 278 90
333 102 86 236 39 275 -97 9 -31 20 -58 23 -60 12 -7 316 16 326 25 13 12 -10
106 -40 168 -56 112 -201 217 -341 246 -85 18 -208 18 -293 -1z"/>
<path d="M7984 6787 c-2 -7 -3 -67 -2 -133 l3 -119 149 -3 c102 -2 153 1 162
9 12 9 14 38 12 133 l-3 121 -158 3 c-124 2 -159 0 -163 -11z"/>
<path d="M5363 6455 c-185 -41 -315 -185 -344 -377 -31 -213 80 -418 266 -487
289 -108 588 38 646 317 15 75 6 203 -21 275 -44 118 -146 218 -263 256 -83
28 -204 35 -284 16z m187 -223 c38 -39 53 -98 53 -217 0 -172 -37 -245 -126
-245 -97 0 -132 76 -125 269 4 94 9 124 26 158 27 51 44 62 100 63 35 0 49 -6
72 -28z"/>
<path d="M6576 6454 c-55 -17 -105 -47 -155 -93 -19 -17 -38 -28 -42 -24 -4 5
-9 31 -11 58 l-3 50 -155 0 -155 0 0 -435 0 -435 147 -3 c123 -2 149 0 162 13
14 14 16 53 16 297 l0 280 34 34 c29 29 41 34 83 34 39 0 54 -5 71 -23 22 -23
22 -29 22 -318 0 -216 3 -298 12 -307 8 -8 57 -12 153 -12 96 0 145 4 153 12
16 16 17 655 2 710 -15 54 -68 118 -120 145 -59 30 -150 38 -214 17z"/>
<path d="M9862 5215 c-49 -15 -79 -33 -144 -87 -53 -44 -56 -42 -60 32 l-3 45
-155 0 -155 0 0 -435 0 -435 147 -3 c123 -2 149 0 162 13 14 14 16 53 16 297
l0 280 34 34 c30 30 40 34 84 34 43 0 54 -4 71 -26 20 -26 21 -38 21 -324 0
-262 2 -299 16 -304 9 -3 76 -6 149 -6 108 0 137 3 149 16 14 13 16 54 16 292
1 247 3 279 18 297 31 38 66 55 108 55 34 0 47 -5 63 -26 20 -26 21 -38 21
-324 0 -262 2 -299 16 -304 31 -12 289 -7 302 6 20 20 17 649 -3 717 -22 72
-83 134 -154 155 -68 20 -94 20 -162 0 -71 -21 -113 -46 -175 -106 l-51 -49
-13 30 c-45 109 -190 166 -318 126z"/>
<path d="M11172 5219 c-100 -15 -170 -46 -223 -99 -47 -47 -79 -114 -62 -131
6 -6 237 -59 258 -59 2 0 12 16 24 35 36 61 142 86 192 46 19 -15 23 -28 24
-72 l0 -54 -99 -7 c-243 -17 -399 -113 -436 -268 -23 -98 21 -206 103 -254
114 -67 274 -50 395 42 18 14 34 23 37 20 2 -2 10 -22 17 -43 l13 -40 138 -3
137 -3 11 28 c16 43 6 646 -12 698 -22 64 -86 120 -164 144 -79 25 -258 35
-353 20z m218 -558 c0 -66 -1 -70 -34 -99 -77 -68 -186 -47 -188 36 -1 17 7
43 16 57 23 35 110 75 164 75 l42 0 0 -69z"/>
<path d="M12358 5215 c-53 -19 -121 -68 -157 -112 -38 -46 -49 -38 -53 42 l-3
60 -145 3 c-127 2 -146 1 -157 -15 -17 -22 -19 -814 -3 -844 10 -17 22 -19
153 -19 78 0 149 5 157 10 13 8 15 50 18 257 2 164 6 256 14 271 7 12 27 32
46 44 31 19 43 20 143 15 l109 -7 0 149 c0 146 0 149 -22 155 -33 9 -58 6
-100 -9z"/>
<path d="M12552 5193 c-7 -14 32 -117 154 -413 90 -217 163 -406 161 -419 -4
-46 -48 -65 -160 -71 l-102 -5 0 -110 0 -110 103 -3 c215 -6 307 48 400 233
16 33 107 246 201 474 135 325 169 416 160 427 -8 10 -39 14 -120 14 -98 0
-109 -2 -122 -21 -8 -11 -45 -107 -83 -212 -37 -106 -72 -198 -77 -205 -14
-18 -15 -17 -96 213 -39 108 -76 203 -82 211 -9 11 -47 14 -170 14 -141 0
-159 -2 -167 -17z"/>
</g>
</svg>
